<svg width="63" height="62" viewBox="0 0 63 62" fill="none" xmlns="http://www.w3.org/2000/svg">
<path d="M41.6349 56.6279V46.7218C41.731 45.5012 41.5661 44.2742 41.1512 43.1223C40.7363 41.9704 40.081 40.92 39.2288 40.0409C47.2663 39.145 55.7134 36.099 55.7134 22.1229C55.7128 18.5491 54.3381 15.1123 51.8738 12.5239C53.0407 9.39723 52.9582 5.9412 51.6435 2.87376C51.6435 2.87376 48.623 1.97786 41.6349 6.66215C35.7681 5.0721 29.5837 5.0721 23.7169 6.66215C16.7288 1.97786 13.7084 2.87376 13.7084 2.87376C12.3936 5.9412 12.3111 9.39723 13.478 12.5239C10.9954 15.1315 9.61927 18.5993 9.63841 22.1997C9.63841 36.0734 18.0855 39.1194 26.123 40.1177C25.2809 40.988 24.6314 42.0258 24.2168 43.1636C23.8023 44.3014 23.6319 45.5138 23.7169 46.7218V56.6279M23.7169 48.9488C10.9183 52.7883 10.9183 42.5495 5.79883 41.2696L23.7169 48.9488Z" stroke="white" stroke-width="2.55972" stroke-linecap="round" stroke-linejoin="round"/>
</svg>
