<svg width="31" height="31" viewBox="0 0 31 31" fill="none" xmlns="http://www.w3.org/2000/svg">
<path fill-rule="evenodd" clip-rule="evenodd" d="M8.41154 2.24447C4.9225 2.24447 2.09408 5.07289 2.09408 8.56193V22.5302C2.09408 26.0192 4.9225 28.8476 8.41154 28.8476H22.3798C25.8688 28.8476 28.6973 26.0192 28.6973 22.5302V8.56193C28.6973 5.07289 25.8688 2.24447 22.3798 2.24447H8.41154ZM0.760742 8.56193C0.760742 4.33651 4.18612 0.911133 8.41154 0.911133H22.3798C26.6052 0.911133 30.0306 4.33651 30.0306 8.56193V22.5302C30.0306 26.7556 26.6052 30.181 22.3798 30.181H8.41154C4.18612 30.181 0.760742 26.7556 0.760742 22.5302V8.56193ZM16.1779 10.618C15.1541 10.4662 14.1085 10.6411 13.1898 11.1178C12.2711 11.5944 11.5262 12.3487 11.0608 13.2732C10.5955 14.1976 10.4336 15.2453 10.598 16.2672C10.7624 17.289 11.2449 18.233 11.9767 18.9648C12.7086 19.6967 13.6525 20.1791 14.6744 20.3436C15.6962 20.508 16.7439 20.346 17.6684 19.8807C18.5929 19.4154 19.3471 18.6704 19.8238 17.7517C20.3005 16.833 20.4753 15.7874 20.3235 14.7636C20.1687 13.7193 19.682 12.7525 18.9355 12.006C18.189 11.2595 17.2222 10.7729 16.1779 10.618ZM12.5757 9.93425C13.7433 9.3284 15.0723 9.10614 16.3735 9.2991C17.7008 9.49592 18.9296 10.1144 19.8783 11.0632C20.8271 12.012 21.4456 13.2408 21.6424 14.5681C21.8354 15.8693 21.6131 17.1982 21.0073 18.3658C20.4014 19.5334 19.4428 20.4803 18.2678 21.0717C17.0928 21.6631 15.7613 21.8689 14.4626 21.66C13.1638 21.451 11.9641 20.8378 11.0339 19.9076C10.1037 18.9775 9.49057 17.7777 9.28158 16.479C9.0726 15.1803 9.27845 13.8487 9.86986 12.6737C10.4613 11.4987 11.4081 10.5401 12.5757 9.93425ZM23.0785 7.19629C22.7103 7.19629 22.4118 7.49477 22.4118 7.86296C22.4118 8.23115 22.7103 8.52962 23.0785 8.52962H23.0918C23.46 8.52962 23.7585 8.23115 23.7585 7.86296C23.7585 7.49477 23.46 7.19629 23.0918 7.19629H23.0785Z" fill="white"/>
</svg>
