<svg width="42" height="50" viewBox="0 0 42 50" fill="none" xmlns="http://www.w3.org/2000/svg">
<path d="M40.4964 20.5978C40.4964 35.7904 20.9631 48.8127 20.9631 48.8127C20.9631 48.8127 1.42969 35.7904 1.42969 20.5978C1.42969 15.4172 3.48766 10.4489 7.15088 6.78564C10.8141 3.12243 15.7825 1.06445 20.9631 1.06445C26.1436 1.06445 31.112 3.12243 34.7752 6.78564C38.4385 10.4489 40.4964 15.4172 40.4964 20.5978Z" stroke="white" strokeWidth="2.04956" strokeLinecap="round" strokeLinejoin="round"/>
<path d="M20.9633 27.1092C24.5593 27.1092 27.4744 24.194 27.4744 20.598C27.4744 17.002 24.5593 14.0869 20.9633 14.0869C17.3673 14.0869 14.4521 17.002 14.4521 20.598C14.4521 24.194 17.3673 27.1092 20.9633 27.1092Z" stroke="white" strokeWidth="2.04956" strokeLinecap="round" strokeLinejoin="round"/>
</svg>
