<svg width="80" height="63" viewBox="0 0 80 63" fill="none" xmlns="http://www.w3.org/2000/svg">
<path d="M72.7295 14.0607C72.3425 12.4892 71.5544 11.0492 70.4447 9.88639C69.3351 8.72354 67.9432 7.87894 66.4096 7.43791C60.8064 6.04712 38.3937 6.04712 38.3937 6.04712C38.3937 6.04712 15.981 6.04712 10.3779 7.57037C8.84431 8.0114 7.45241 8.85599 6.34275 10.0188C5.23309 11.1817 4.44498 12.6216 4.058 14.1932C3.03254 19.9735 2.53093 25.8372 2.55948 31.7106C2.52293 37.6282 3.02457 43.5366 4.058 49.3604C4.48462 50.8832 5.2904 52.2683 6.39747 53.3821C7.50455 54.4958 8.8755 55.3005 10.3779 55.7183C15.981 57.2416 38.3937 57.2416 38.3937 57.2416C38.3937 57.2416 60.8064 57.2416 66.4096 55.7183C67.9432 55.2773 69.3351 54.4327 70.4447 53.2698C71.5544 52.107 72.3425 50.6671 72.7295 49.0955C73.747 43.3588 74.2486 37.5398 74.228 31.7106C74.2645 25.7929 73.7629 19.8845 72.7295 14.0607V14.0607Z" stroke="white" stroke-width="2.55972" stroke-linecap="round" stroke-linejoin="round"/>
<path d="M30.7168 41.8833L51.1946 31.6444L30.7168 21.4055V41.8833Z" stroke="white" stroke-width="2.55972" stroke-linecap="round" stroke-linejoin="round"/>
</svg>
