<svg width="55" height="57" viewBox="0 0 55 57" fill="none" xmlns="http://www.w3.org/2000/svg">
<ellipse cx="14.5242" cy="21.8241" rx="8.46164" ry="8.79406" transform="rotate(102.567 14.5242 21.8241)" fill="#2B305E"/>
<ellipse cx="37.116" cy="13.8114" rx="8.46164" ry="8.79406" transform="rotate(102.567 37.116 13.8114)" fill="#2B305E"/>
<mask id="path-3-inside-1_7674_380" fill="white">
<ellipse cx="47.6936" cy="5.3044" rx="2.18084" ry="2.26651" transform="rotate(102.567 47.6936 5.3044)"/>
</mask>
<ellipse cx="47.6936" cy="5.3044" rx="2.18084" ry="2.26651" transform="rotate(102.567 47.6936 5.3044)" fill="#2B305E"/>
<path d="M47.2191 7.43299L47.8718 4.50486C48.1598 4.56907 48.5314 4.9171 48.4095 5.46399L45.4813 4.81127L42.5532 4.15855C41.9072 7.05662 43.8348 9.75222 46.5663 10.3611L47.2191 7.43299ZM45.4813 4.81127L48.4095 5.46399C48.2876 6.01089 47.8033 6.16815 47.5153 6.10394L48.168 3.17581L48.8208 0.24768C46.0892 -0.361224 43.1992 1.26048 42.5532 4.15855L45.4813 4.81127ZM48.168 3.17581L47.5153 6.10394C47.2273 6.03974 46.8557 5.69171 46.9776 5.14482L49.9058 5.79754L52.8339 6.45026C53.4799 3.55219 51.5523 0.856584 48.8208 0.24768L48.168 3.17581ZM49.9058 5.79754L46.9776 5.14482C47.0995 4.59792 47.5838 4.44066 47.8718 4.50486L47.2191 7.43299L46.5663 10.3611C49.2979 10.97 52.1879 9.34833 52.8339 6.45026L49.9058 5.79754Z" fill="white" mask="url(#path-3-inside-1_7674_380)"/>
<ellipse cx="30.2449" cy="44.6327" rx="8.46164" ry="8.79406" transform="rotate(102.567 30.2449 44.6327)" fill="#DBB968"/>
<path d="M14.4527 42.9863C9.71222 41.9296 6.69356 37.3753 7.71033 32.8141C8.72711 28.2528 13.3943 25.4118 18.1348 26.4685C22.8752 27.5252 25.8939 32.0795 24.8771 36.6408C23.8603 41.2021 19.1932 44.0431 14.4527 42.9863Z" fill="#C9D6EA"/>
<ellipse cx="45.2756" cy="36.0739" rx="2.18084" ry="2.26651" transform="rotate(102.567 45.2756 36.0739)" fill="#DBB968"/>
</svg>
