<svg width="279" height="87" viewBox="0 0 279 87" fill="none" xmlns="http://www.w3.org/2000/svg">
<path d="M20.1028 15.9053L6.79512 15.581L6.55698 15.5892C6.19259 15.6239 5.8425 15.7577 5.54247 15.977C5.24244 16.1963 5.00323 16.4932 4.84924 16.8375C4.69526 17.1817 4.63204 17.561 4.66602 17.9364C4.70001 18.3119 4.82999 18.6702 5.04269 18.9747L12.7803 30.0819L8.2252 43.0607L8.15828 43.2874C8.07186 43.6558 8.08154 44.0402 8.18632 44.4012C8.2911 44.7621 8.48721 45.0867 8.75459 45.3418C9.02197 45.5968 9.351 45.773 9.70799 45.8524C10.065 45.9319 10.4371 45.9116 10.7863 45.7938L23.4881 41.5139L33.9544 49.8493L34.1407 49.9816C34.4522 50.1771 34.8095 50.2828 35.1758 50.288C35.5421 50.2932 35.9043 50.1976 36.2252 50.0111C36.5462 49.8245 36.8142 49.5538 37.002 49.2265C37.1897 48.8993 37.2904 48.5274 37.2936 48.149L37.4159 34.3942L48.4708 26.5744L48.6607 26.4233C48.9377 26.1743 49.1466 25.8547 49.2663 25.497C49.386 25.1394 49.4121 24.7564 49.342 24.3872C49.2718 24.018 49.1079 23.6758 48.867 23.3953C48.6261 23.1149 48.3168 22.9063 47.9706 22.7907L35.3443 18.5732L31.6758 5.40139C31.5697 5.01979 31.362 4.67773 31.0761 4.41392C30.7902 4.15011 30.4375 3.97509 30.0581 3.90867C29.6786 3.84225 29.2875 3.88708 28.929 4.03809C28.5705 4.1891 28.2589 4.44026 28.0295 4.76313L20.1028 15.9053Z" fill="#F7D27F"/>
<path d="M246.103 15.9053L232.795 15.581L232.557 15.5892C232.193 15.6239 231.842 15.7577 231.542 15.977C231.242 16.1963 231.003 16.4932 230.849 16.8375C230.695 17.1817 230.632 17.561 230.666 17.9364C230.7 18.3119 230.83 18.6702 231.043 18.9747L238.78 30.0819L234.225 43.0607L234.158 43.2874C234.072 43.6558 234.082 44.0402 234.186 44.4012C234.291 44.7621 234.487 45.0867 234.755 45.3418C235.022 45.5968 235.351 45.773 235.708 45.8524C236.065 45.9319 236.437 45.9116 236.786 45.7938L249.488 41.5139L259.954 49.8493L260.141 49.9816C260.452 50.1771 260.81 50.2828 261.176 50.288C261.542 50.2932 261.904 50.1976 262.225 50.0111C262.546 49.8245 262.814 49.5538 263.002 49.2265C263.19 48.8993 263.29 48.5274 263.294 48.149L263.416 34.3942L274.471 26.5744L274.661 26.4233C274.938 26.1743 275.147 25.8547 275.266 25.497C275.386 25.1394 275.412 24.7564 275.342 24.3872C275.272 24.018 275.108 23.6758 274.867 23.3953C274.626 23.1149 274.317 22.9063 273.971 22.7907L261.344 18.5732L257.676 5.40139C257.57 5.01979 257.362 4.67773 257.076 4.41392C256.79 4.15011 256.438 3.97509 256.058 3.90867C255.679 3.84225 255.288 3.88708 254.929 4.03809C254.57 4.1891 254.259 4.44026 254.03 4.76313L246.103 15.9053Z" fill="#F7D27F"/>
<path d="M52.881 58.0269L47.0017 57.8837L46.8965 57.8873C46.7355 57.9026 46.5808 57.9617 46.4483 58.0586C46.3157 58.1555 46.21 58.2867 46.142 58.4388C46.074 58.5909 46.046 58.7584 46.0611 58.9243C46.0761 59.0902 46.1335 59.2485 46.2275 59.383L49.646 64.2901L47.6335 70.0242L47.6039 70.1243C47.5658 70.2871 47.57 70.4569 47.6163 70.6164C47.6626 70.7759 47.7493 70.9193 47.8674 71.0319C47.9855 71.1446 48.1309 71.2225 48.2886 71.2576C48.4463 71.2927 48.6107 71.2837 48.765 71.2317L54.3766 69.3408L59.0006 73.0234L59.0829 73.0818C59.2206 73.1682 59.3784 73.2149 59.5403 73.2172C59.7021 73.2195 59.8621 73.1773 60.0039 73.0948C60.1457 73.0124 60.2641 72.8928 60.3471 72.7482C60.43 72.6037 60.4745 72.4394 60.4759 72.2722L60.5299 66.1953L65.414 62.7405L65.4979 62.6738C65.6202 62.5638 65.7126 62.4226 65.7654 62.2646C65.8183 62.1066 65.8298 61.9374 65.7988 61.7743C65.7679 61.6112 65.6955 61.4599 65.589 61.336C65.4826 61.2121 65.3459 61.12 65.193 61.0689L59.6147 59.2056L57.9939 53.3863C57.9471 53.2177 57.8553 53.0666 57.729 52.9501C57.6027 52.8335 57.4469 52.7562 57.2792 52.7268C57.1116 52.6975 56.9388 52.7173 56.7804 52.784C56.622 52.8507 56.4844 52.9617 56.383 53.1043L52.881 58.0269Z" fill="#F7D27F"/>
<path d="M109.651 70.8445L103.925 70.705L103.822 70.7085C103.665 70.7234 103.515 70.781 103.385 70.8754C103.256 70.9698 103.153 71.0975 103.087 71.2457C103.021 71.3938 102.994 71.557 103.008 71.7186C103.023 71.8802 103.079 72.0343 103.17 72.1654L106.5 76.9451L104.54 82.5303L104.511 82.6279C104.474 82.7864 104.478 82.9518 104.523 83.1072C104.568 83.2625 104.653 83.4022 104.768 83.5119C104.883 83.6217 105.024 83.6975 105.178 83.7317C105.332 83.7659 105.492 83.7572 105.642 83.7065L111.108 81.8647L115.612 85.4516L115.692 85.5086C115.826 85.5927 115.98 85.6382 116.138 85.6404C116.295 85.6427 116.451 85.6015 116.589 85.5213C116.727 85.441 116.843 85.3245 116.923 85.1837C117.004 85.0428 117.048 84.8828 117.049 84.7199L117.102 78.8009L121.859 75.4358L121.941 75.3708C122.06 75.2636 122.15 75.1261 122.201 74.9721C122.253 74.8182 122.264 74.6534 122.234 74.4946C122.204 74.3357 122.133 74.1884 122.029 74.0677C121.926 73.947 121.793 73.8573 121.644 73.8075L116.21 71.9926L114.631 66.3244C114.586 66.1602 114.496 66.013 114.373 65.8994C114.25 65.7859 114.099 65.7106 113.935 65.682C113.772 65.6534 113.604 65.6727 113.449 65.7377C113.295 65.8027 113.161 65.9108 113.062 66.0497L109.651 70.8445Z" fill="#F7D27F"/>
<path d="M163.651 70.8445L157.925 70.705L157.822 70.7085C157.665 70.7234 157.515 70.781 157.385 70.8754C157.256 70.9698 157.153 71.0975 157.087 71.2457C157.021 71.3938 156.994 71.557 157.008 71.7186C157.023 71.8802 157.079 72.0343 157.17 72.1654L160.5 76.9451L158.54 82.5303L158.511 82.6279C158.474 82.7864 158.478 82.9518 158.523 83.1072C158.568 83.2625 158.653 83.4022 158.768 83.5119C158.883 83.6217 159.024 83.6975 159.178 83.7317C159.332 83.7659 159.492 83.7572 159.642 83.7065L165.108 81.8647L169.612 85.4516L169.692 85.5086C169.826 85.5927 169.98 85.6382 170.138 85.6404C170.295 85.6427 170.451 85.6015 170.589 85.5213C170.727 85.441 170.843 85.3245 170.923 85.1837C171.004 85.0428 171.048 84.8828 171.049 84.7199L171.102 78.8009L175.859 75.4358L175.941 75.3708C176.06 75.2636 176.15 75.1261 176.201 74.9721C176.253 74.8182 176.264 74.6534 176.234 74.4946C176.204 74.3357 176.133 74.1884 176.029 74.0677C175.926 73.947 175.793 73.8573 175.644 73.8075L170.21 71.9926L168.631 66.3244C168.586 66.1602 168.496 66.013 168.373 65.8994C168.25 65.7859 168.099 65.7106 167.935 65.682C167.772 65.6534 167.604 65.6727 167.449 65.7377C167.295 65.8027 167.161 65.9108 167.062 66.0497L163.651 70.8445Z" fill="#F7D27F"/>
<path d="M217.651 57.8445L211.925 57.705L211.822 57.7085C211.665 57.7234 211.515 57.781 211.385 57.8754C211.256 57.9698 211.153 58.0975 211.087 58.2457C211.021 58.3938 210.994 58.557 211.008 58.7186C211.023 58.8802 211.079 59.0343 211.17 59.1654L214.5 63.9451L212.54 69.5303L212.511 69.6279C212.474 69.7864 212.478 69.9518 212.523 70.1072C212.568 70.2625 212.653 70.4022 212.768 70.5119C212.883 70.6217 213.024 70.6975 213.178 70.7317C213.332 70.7659 213.492 70.7572 213.642 70.7065L219.108 68.8647L223.612 72.4516L223.692 72.5086C223.826 72.5927 223.98 72.6382 224.138 72.6404C224.295 72.6427 224.451 72.6015 224.589 72.5213C224.727 72.441 224.843 72.3245 224.923 72.1837C225.004 72.0428 225.048 71.8828 225.049 71.72L225.102 65.8009L229.859 62.4358L229.941 62.3708C230.06 62.2636 230.15 62.1261 230.201 61.9721C230.253 61.8182 230.264 61.6534 230.234 61.4946C230.204 61.3357 230.133 61.1884 230.029 61.0677C229.926 60.947 229.793 60.8573 229.644 60.8075L224.21 58.9926L222.631 53.3244C222.586 53.1602 222.496 53.013 222.373 52.8994C222.25 52.7859 222.099 52.7106 221.935 52.682C221.772 52.6534 221.604 52.6727 221.449 52.7377C221.295 52.8027 221.161 52.9108 221.062 53.0497L217.651 57.8445Z" fill="#F7D27F"/>
</svg>
