<svg width="224" height="235" viewBox="0 0 224 235" fill="none" xmlns="http://www.w3.org/2000/svg">
<path d="M67.8401 77.3356L6.06546 106.919L4.99229 107.51C3.40125 108.513 2.1047 109.919 1.23504 111.586C0.365382 113.253 -0.0462213 115.122 0.042259 117C0.130741 118.878 0.716142 120.699 1.73867 122.277C2.76121 123.856 4.18423 125.134 5.86245 125.982L66.9835 156.974L76.0526 224.875L76.2691 226.032C76.7231 227.859 77.6547 229.533 78.9683 230.882C80.282 232.232 81.9307 233.207 83.7454 233.71C85.5602 234.212 87.4758 234.223 89.2963 233.742C91.1167 233.26 92.7765 232.304 94.1057 230.97L142.474 182.477L209.71 194.874L210.87 195.024C212.75 195.161 214.632 194.795 216.324 193.964C218.016 193.133 219.456 191.867 220.497 190.296C221.538 188.725 222.143 186.905 222.248 185.023C222.354 183.141 221.957 181.265 221.098 179.587L189.91 118.592L222.556 58.3121L223.078 57.2031C223.773 55.4585 223.994 53.5608 223.717 51.7032C223.44 49.8456 222.676 48.0946 221.502 46.6285C220.328 45.1624 218.787 44.0337 217.035 43.3573C215.283 42.6809 213.383 42.481 211.528 42.7781L143.892 53.5896L96.6656 4.00184C95.2984 2.56478 93.5562 1.53917 91.6362 1.04108C89.7162 0.542995 87.6951 0.592334 85.8017 1.18351C83.9083 1.7747 82.2183 2.88411 80.9228 4.38617C79.6273 5.88823 78.7782 7.72295 78.4715 9.68265L67.8401 77.3356Z" fill="#F7D27F"/>
</svg>
