<svg width="70" height="70" viewBox="0 0 70 70" fill="none" xmlns="http://www.w3.org/2000/svg">
<g clip-path="url(#clip0_5598_1928)">
<g filter="url(#filter0_d_5598_1928)">
<path d="M36.458 45.2109L42.2913 51.0443" stroke="#DCB968" stroke-width="5" stroke-linecap="round" stroke-linejoin="round" shape-rendering="crispEdges"/>
</g>
<g filter="url(#filter1_d_5598_1928)">
<path d="M43.75 37.9141L49.5833 43.7474" stroke="#DCB968" stroke-width="5" stroke-linecap="round" stroke-linejoin="round" shape-rendering="crispEdges"/>
</g>
<path d="M34.9996 17.5L25.395 27.1046C24.8482 27.6515 24.541 28.3933 24.541 29.1667C24.541 29.9401 24.8482 30.6818 25.395 31.2287L26.9787 32.8125C28.9912 34.825 32.2579 34.825 34.2704 32.8125L37.1871 29.8958C38.9276 28.1554 41.2882 27.1776 43.7496 27.1776C46.211 27.1776 48.5716 28.1554 50.3121 29.8958L56.8746 36.4583" stroke="#DCB968" stroke-width="5" stroke-linecap="round" stroke-linejoin="round"/>
<g filter="url(#filter2_d_5598_1928)">
<path d="M56.8748 36.6677L34.9998 58.3327L13.1248 36.6677C11.682 35.2637 10.5454 33.5761 9.78683 31.7113C9.02823 29.8464 8.66396 27.8447 8.71697 25.8321C8.76998 23.8196 9.23913 21.8398 10.0949 20.0175C10.9506 18.1952 12.1744 16.5697 13.6892 15.2436C15.2039 13.9175 16.9769 12.9193 18.8964 12.3121C20.8158 11.7048 22.8403 11.5015 24.8421 11.7151C26.844 11.9286 28.78 12.5544 30.5282 13.5529C32.2764 14.5514 33.7989 15.9011 34.9998 17.5169C36.206 15.9128 37.7302 14.5749 39.4772 13.587C41.2242 12.5991 43.1563 11.9824 45.1525 11.7755C47.1488 11.5686 49.1663 11.776 51.0787 12.3847C52.9912 12.9934 54.7574 13.9903 56.2668 15.313C57.7763 16.6357 58.9965 18.2557 59.851 20.0716C60.7056 21.8875 61.1761 23.8603 61.2332 25.8665C61.2903 27.8726 60.9327 29.869 60.1827 31.7306C59.4328 33.5921 58.3066 35.2789 56.8748 36.6853" stroke="#DCB968" stroke-width="5" stroke-linecap="round" stroke-linejoin="round" shape-rendering="crispEdges"/>
</g>
</g>
<defs>
<filter id="filter0_d_5598_1928" x="32.958" y="41.7109" width="20.833" height="20.833" filterUnits="userSpaceOnUse" color-interpolation-filters="sRGB">
<feFlood flood-opacity="0" result="BackgroundImageFix"/>
<feColorMatrix in="SourceAlpha" type="matrix" values="0 0 0 0 0 0 0 0 0 0 0 0 0 0 0 0 0 0 127 0" result="hardAlpha"/>
<feOffset dx="4" dy="4"/>
<feGaussianBlur stdDeviation="2.5"/>
<feComposite in2="hardAlpha" operator="out"/>
<feColorMatrix type="matrix" values="0 0 0 0 0 0 0 0 0 0 0 0 0 0 0 0 0 0 0.25 0"/>
<feBlend mode="normal" in2="BackgroundImageFix" result="effect1_dropShadow_5598_1928"/>
<feBlend mode="normal" in="SourceGraphic" in2="effect1_dropShadow_5598_1928" result="shape"/>
</filter>
<filter id="filter1_d_5598_1928" x="40.25" y="34.4141" width="20.833" height="20.833" filterUnits="userSpaceOnUse" color-interpolation-filters="sRGB">
<feFlood flood-opacity="0" result="BackgroundImageFix"/>
<feColorMatrix in="SourceAlpha" type="matrix" values="0 0 0 0 0 0 0 0 0 0 0 0 0 0 0 0 0 0 127 0" result="hardAlpha"/>
<feOffset dx="4" dy="4"/>
<feGaussianBlur stdDeviation="2.5"/>
<feComposite in2="hardAlpha" operator="out"/>
<feColorMatrix type="matrix" values="0 0 0 0 0 0 0 0 0 0 0 0 0 0 0 0 0 0 0.25 0"/>
<feBlend mode="normal" in2="BackgroundImageFix" result="effect1_dropShadow_5598_1928"/>
<feBlend mode="normal" in="SourceGraphic" in2="effect1_dropShadow_5598_1928" result="shape"/>
</filter>
<filter id="filter2_d_5598_1928" x="5.21191" y="8.13281" width="67.5273" height="61.7002" filterUnits="userSpaceOnUse" color-interpolation-filters="sRGB">
<feFlood flood-opacity="0" result="BackgroundImageFix"/>
<feColorMatrix in="SourceAlpha" type="matrix" values="0 0 0 0 0 0 0 0 0 0 0 0 0 0 0 0 0 0 127 0" result="hardAlpha"/>
<feOffset dx="4" dy="4"/>
<feGaussianBlur stdDeviation="2.5"/>
<feComposite in2="hardAlpha" operator="out"/>
<feColorMatrix type="matrix" values="0 0 0 0 0 0 0 0 0 0 0 0 0 0 0 0 0 0 0.25 0"/>
<feBlend mode="normal" in2="BackgroundImageFix" result="effect1_dropShadow_5598_1928"/>
<feBlend mode="normal" in="SourceGraphic" in2="effect1_dropShadow_5598_1928" result="shape"/>
</filter>
<clipPath id="clip0_5598_1928">
<rect width="70" height="70" fill="white"/>
</clipPath>
</defs>
</svg>
