<svg width="70" height="70" viewBox="0 0 70 70" fill="none" xmlns="http://www.w3.org/2000/svg">
<g filter="url(#filter0_d_5598_1950)">
<path d="M11.666 34.9967C11.666 35.7703 11.9733 36.5122 12.5203 37.0591C13.0673 37.6061 13.8091 37.9134 14.5827 37.9134C15.3562 37.9134 16.0981 37.6061 16.6451 37.0591C17.1921 36.5122 17.4993 35.7703 17.4993 34.9967C17.4993 34.2232 17.1921 33.4813 16.6451 32.9344C16.0981 32.3874 15.3562 32.0801 14.5827 32.0801C13.8091 32.0801 13.0673 32.3874 12.5203 32.9344C11.9733 33.4813 11.666 34.2232 11.666 34.9967Z" stroke="#DCB968" stroke-width="5" stroke-linecap="round" stroke-linejoin="round" shape-rendering="crispEdges"/>
</g>
<g filter="url(#filter1_d_5598_1950)">
<path d="M32.084 34.9967C32.084 35.7703 32.3913 36.5122 32.9383 37.0591C33.4852 37.6061 34.2271 37.9134 35.0007 37.9134C35.7742 37.9134 36.5161 37.6061 37.063 37.0591C37.61 36.5122 37.9173 35.7703 37.9173 34.9967C37.9173 34.2232 37.61 33.4813 37.063 32.9344C36.5161 32.3874 35.7742 32.0801 35.0007 32.0801C34.2271 32.0801 33.4852 32.3874 32.9383 32.9344C32.3913 33.4813 32.084 34.2232 32.084 34.9967Z" stroke="#DCB968" stroke-width="5" stroke-linecap="round" stroke-linejoin="round" shape-rendering="crispEdges"/>
</g>
<g filter="url(#filter2_d_5598_1950)">
<path d="M52.5 34.9967C52.5 35.7703 52.8073 36.5122 53.3543 37.0591C53.9013 37.6061 54.6431 37.9134 55.4167 37.9134C56.1902 37.9134 56.9321 37.6061 57.4791 37.0591C58.026 36.5122 58.3333 35.7703 58.3333 34.9967C58.3333 34.2232 58.026 33.4813 57.4791 32.9344C56.9321 32.3874 56.1902 32.0801 55.4167 32.0801C54.6431 32.0801 53.9013 32.3874 53.3543 32.9344C52.8073 33.4813 52.5 34.2232 52.5 34.9967Z" stroke="#DCB968" stroke-width="5" stroke-linecap="round" stroke-linejoin="round" shape-rendering="crispEdges"/>
</g>
<defs>
<filter id="filter0_d_5598_1950" x="8.16602" y="28.5801" width="20.833" height="20.834" filterUnits="userSpaceOnUse" color-interpolation-filters="sRGB">
<feFlood flood-opacity="0" result="BackgroundImageFix"/>
<feColorMatrix in="SourceAlpha" type="matrix" values="0 0 0 0 0 0 0 0 0 0 0 0 0 0 0 0 0 0 127 0" result="hardAlpha"/>
<feOffset dx="4" dy="4"/>
<feGaussianBlur stdDeviation="2.5"/>
<feComposite in2="hardAlpha" operator="out"/>
<feColorMatrix type="matrix" values="0 0 0 0 0 0 0 0 0 0 0 0 0 0 0 0 0 0 0.25 0"/>
<feBlend mode="normal" in2="BackgroundImageFix" result="effect1_dropShadow_5598_1950"/>
<feBlend mode="normal" in="SourceGraphic" in2="effect1_dropShadow_5598_1950" result="shape"/>
</filter>
<filter id="filter1_d_5598_1950" x="28.584" y="28.5801" width="20.833" height="20.834" filterUnits="userSpaceOnUse" color-interpolation-filters="sRGB">
<feFlood flood-opacity="0" result="BackgroundImageFix"/>
<feColorMatrix in="SourceAlpha" type="matrix" values="0 0 0 0 0 0 0 0 0 0 0 0 0 0 0 0 0 0 127 0" result="hardAlpha"/>
<feOffset dx="4" dy="4"/>
<feGaussianBlur stdDeviation="2.5"/>
<feComposite in2="hardAlpha" operator="out"/>
<feColorMatrix type="matrix" values="0 0 0 0 0 0 0 0 0 0 0 0 0 0 0 0 0 0 0.25 0"/>
<feBlend mode="normal" in2="BackgroundImageFix" result="effect1_dropShadow_5598_1950"/>
<feBlend mode="normal" in="SourceGraphic" in2="effect1_dropShadow_5598_1950" result="shape"/>
</filter>
<filter id="filter2_d_5598_1950" x="49" y="28.5801" width="20.833" height="20.834" filterUnits="userSpaceOnUse" color-interpolation-filters="sRGB">
<feFlood flood-opacity="0" result="BackgroundImageFix"/>
<feColorMatrix in="SourceAlpha" type="matrix" values="0 0 0 0 0 0 0 0 0 0 0 0 0 0 0 0 0 0 127 0" result="hardAlpha"/>
<feOffset dx="4" dy="4"/>
<feGaussianBlur stdDeviation="2.5"/>
<feComposite in2="hardAlpha" operator="out"/>
<feColorMatrix type="matrix" values="0 0 0 0 0 0 0 0 0 0 0 0 0 0 0 0 0 0 0.25 0"/>
<feBlend mode="normal" in2="BackgroundImageFix" result="effect1_dropShadow_5598_1950"/>
<feBlend mode="normal" in="SourceGraphic" in2="effect1_dropShadow_5598_1950" result="shape"/>
</filter>
</defs>
</svg>
