<svg width="250" height="250" viewBox="0 0 250 250" fill="none" xmlns="http://www.w3.org/2000/svg">
<mask id="path-1-inside-1_6194_376" fill="white">
<path d="M250 125C250 194.036 194.036 250 125 250C55.9644 250 0 194.036 0 125C0 55.9644 55.9644 0 125 0C194.036 0 250 55.9644 250 125Z"/>
</mask>
<path d="M250 125C250 194.036 194.036 250 125 250C55.9644 250 0 194.036 0 125C0 55.9644 55.9644 0 125 0C194.036 0 250 55.9644 250 125Z" stroke="url(#paint0_linear_6194_376)" stroke-width="20" stroke-linecap="round" stroke-dasharray="20 20" mask="url(#path-1-inside-1_6194_376)"/>
<path d="M250 125C250 194.036 194.036 250 125 250C55.9644 250 0 194.036 0 125C0 55.9644 55.9644 0 125 0C194.036 0 250 55.9644 250 125Z" stroke="url(#paint1_radial_6194_376)" stroke-opacity="0.2" stroke-width="20" stroke-linecap="round" stroke-dasharray="20 20" mask="url(#path-1-inside-1_6194_376)"/>
<defs>
<linearGradient id="paint0_linear_6194_376" x1="125" y1="0" x2="125" y2="250" gradientUnits="userSpaceOnUse">
<stop stop-color="#FFEFCA"/>
<stop offset="1" stop-color="#C9D6EA"/>
</linearGradient>
<radialGradient id="paint1_radial_6194_376" cx="0" cy="0" r="1" gradientUnits="userSpaceOnUse" gradientTransform="translate(125 125) rotate(90) scale(125)">
<stop stop-opacity="0"/>
<stop offset="0.939067" stop-opacity="0.1"/>
<stop offset="0.978716"/>
<stop offset="1" stop-opacity="0.25"/>
</radialGradient>
</defs>
</svg>
