<svg width="113" height="116" viewBox="0 0 113 116" fill="none" xmlns="http://www.w3.org/2000/svg">
<path d="M18.3462 53.8162L1.1064 82.1613L0.828092 82.6859C0.450073 83.5161 0.304045 84.4387 0.404911 85.3594C0.50578 86.2801 0.849931 87.1659 1.40223 87.9264C1.95452 88.6869 2.69517 89.2948 3.54853 89.688C4.4019 90.0813 5.3374 90.2458 6.25952 90.1647L39.8706 87.2538L62.2468 113.225L62.6535 113.651C63.3419 114.295 64.1843 114.752 65.0943 114.975C66.0043 115.197 66.9493 115.177 67.8324 114.916C68.7156 114.655 69.5053 114.163 70.1206 113.491C70.7358 112.819 71.1546 111.99 71.334 111.089L77.8745 78.3305L108.889 66.08L109.406 65.842C110.216 65.4119 110.888 64.7716 111.355 63.9867C111.821 63.2018 112.065 62.3005 112.061 61.3755C112.057 60.4504 111.805 59.5347 111.331 58.7225C110.858 57.9102 110.179 57.2306 109.366 56.7533L79.8042 39.3942L76.6508 5.79392L76.5604 5.19613C76.3668 4.2883 75.936 3.43963 75.3121 2.73657C74.6882 2.03351 73.8934 1.5012 73.0087 1.19387C72.1239 0.886546 71.1809 0.815182 70.2757 0.987044C69.3704 1.15891 68.5353 1.56787 67.8554 2.17225L43.0522 24.2065L10.0383 15.7611C9.08209 15.516 8.08496 15.5396 7.15974 15.8294C6.23452 16.1191 5.41817 16.6634 4.80308 17.4005C4.188 18.1377 3.79876 19.0383 3.67941 20.0005C3.56006 20.9626 3.71538 21.9479 4.12778 22.8447L18.3462 53.8162Z" fill="#F7D27F"/>
</svg>
