<svg width="1920" height="778" viewBox="0 0 1920 778" fill="none" xmlns="http://www.w3.org/2000/svg">
<g opacity="0.07">
<mask id="mask0_7572_886" style="mask-type:alpha" maskUnits="userSpaceOnUse" x="4" y="0" width="1912" height="770">
<rect x="4.58781" y="0.587805" width="1910.5" height="768.824" fill="#CBA438" stroke="black" stroke-width="1.17561"/>
</mask>
<g mask="url(#mask0_7572_886)">
<path opacity="0.5" d="M61.5298 -49.4209L-28.3013 2.12853" stroke="black" stroke-width="4.70244"/>
<path opacity="0.63" d="M61.5308 -49.4209L151.362 2.12853" stroke="black" stroke-width="4.70244"/>
<path opacity="0.2" d="M241.192 -49.4209L151.361 2.12853" stroke="black" stroke-width="4.70244"/>
<path opacity="0.39" d="M241.193 -49.4209L331.024 2.12853" stroke="black" stroke-width="4.70244"/>
<path opacity="0.53" d="M331.023 -49.4209L420.855 2.12853" stroke="black" stroke-width="4.70244"/>
<path opacity="0.12" d="M420.854 -49.4209L510.686 2.12853" stroke="black" stroke-width="4.70244"/>
<path opacity="0.69" d="M510.685 -49.4209L600.516 2.12853" stroke="black" stroke-width="4.70244"/>
<path opacity="0.77" d="M690.349 -49.4209L600.518 2.12853" stroke="black" stroke-width="4.70244"/>
<path opacity="0.57" d="M690.349 -49.4209L780.18 2.12853" stroke="black" stroke-width="4.70244"/>
<path opacity="0.71" d="M870.011 -49.4209L780.18 2.12853" stroke="black" stroke-width="4.70244"/>
<path opacity="0.88" d="M870.01 -49.4209L959.841 2.12853" stroke="black" stroke-width="4.70244"/>
<path opacity="0.24" d="M959.842 -49.4209L1049.67 2.12853" stroke="black" stroke-width="4.70244"/>
<path opacity="0.85" d="M1139.5 -49.4209L1049.67 2.12853" stroke="black" stroke-width="4.70244"/>
<path opacity="0.46" d="M1139.5 -49.4209L1229.34 2.12853" stroke="black" stroke-width="4.70244"/>
<path opacity="0.93" d="M1229.33 -49.4209L1319.17 2.12853" stroke="black" stroke-width="4.70244"/>
<path opacity="0.71" d="M1319.17 -49.4209L1409 2.12853" stroke="black" stroke-width="4.70244"/>
<path opacity="0.34" d="M1409 -49.4209L1498.83 2.12853" stroke="black" stroke-width="4.70244"/>
<path opacity="0.51" d="M1498.83 -49.4209L1588.66 2.12853" stroke="black" stroke-width="4.70244"/>
<path opacity="0.58" d="M1678.49 -49.4209L1588.66 2.12853" stroke="black" stroke-width="4.70244"/>
<path opacity="0.63" d="M1678.49 -49.4209L1768.32 2.12853" stroke="black" stroke-width="4.70244"/>
<path opacity="0.2" d="M1768.32 -49.4209L1858.15 2.12853" stroke="black" stroke-width="4.70244"/>
<path opacity="0.33" d="M1858.15 -49.4209L1947.98 2.12853" stroke="black" stroke-width="4.70244"/>
<path opacity="0.68" d="M-28.3003 2.12793L61.5308 53.6774" stroke="black" stroke-width="4.70244"/>
<path opacity="0.41" d="M61.5308 2.12793L151.362 53.6774" stroke="black" stroke-width="4.70244"/>
<path opacity="0.92" d="M151.361 2.12793L241.192 53.6774" stroke="black" stroke-width="4.70244"/>
<path opacity="0.78" d="M331.024 2.12793L241.193 53.6774" stroke="black" stroke-width="4.70244"/>
<path opacity="0.44" d="M331.023 2.12793L420.855 53.6774" stroke="black" stroke-width="4.70244"/>
<path opacity="0.6" d="M510.686 2.12793L420.854 53.6774" stroke="black" stroke-width="4.70244"/>
<path opacity="0.39" d="M510.685 2.12793L600.516 53.6774" stroke="black" stroke-width="4.70244"/>
<path opacity="0.55" d="M600.518 2.12793L690.349 53.6774" stroke="black" stroke-width="4.70244"/>
<path opacity="0.38" d="M690.349 2.12793L780.18 53.6774" stroke="black" stroke-width="4.70244"/>
<path opacity="0.9" d="M780.18 2.12793L870.011 53.6774" stroke="black" stroke-width="4.70244"/>
<path opacity="0.49" d="M870.01 2.12793L959.841 53.6774" stroke="black" stroke-width="4.70244"/>
<path opacity="0.62" d="M959.842 2.12793L1049.67 53.6774" stroke="black" stroke-width="4.70244"/>
<path opacity="0.9" d="M1139.5 2.12793L1049.67 53.6774" stroke="black" stroke-width="4.70244"/>
<path opacity="0.43" d="M1139.5 2.12793L1229.34 53.6774" stroke="black" stroke-width="4.70244"/>
<path opacity="0.08" d="M1229.33 2.12793L1319.17 53.6774" stroke="black" stroke-width="4.70244"/>
<path opacity="0.61" d="M1409 2.12793L1319.17 53.6774" stroke="black" stroke-width="4.70244"/>
<path opacity="0.16" d="M1409 2.12793L1498.83 53.6774" stroke="black" stroke-width="4.70244"/>
<path opacity="0.59" d="M1498.83 2.12793L1588.66 53.6774" stroke="black" stroke-width="4.70244"/>
<path opacity="0.32" d="M1588.66 2.12793L1678.49 53.6774" stroke="black" stroke-width="4.70244"/>
<path opacity="0.32" d="M1678.49 2.12793L1768.32 53.6774" stroke="black" stroke-width="4.70244"/>
<path opacity="0.27" d="M1768.32 2.12793L1858.15 53.6774" stroke="black" stroke-width="4.70244"/>
<path opacity="0.74" d="M1858.15 2.12793L1947.98 53.6774" stroke="black" stroke-width="4.70244"/>
<path opacity="0.43" d="M-28.3013 53.6768L61.5298 105.226" stroke="black" stroke-width="4.70244"/>
<path opacity="0.36" d="M151.362 53.6768L61.5308 105.226" stroke="black" stroke-width="4.70244"/>
<path opacity="0.18" d="M151.361 53.6768L241.192 105.226" stroke="black" stroke-width="4.70244"/>
<path opacity="0.89" d="M331.023 53.6768L241.192 105.226" stroke="black" stroke-width="4.70244"/>
<path opacity="0.45" d="M331.023 53.6768L420.855 105.226" stroke="black" stroke-width="4.70244"/>
<path opacity="0.63" d="M510.686 53.6768L420.854 105.226" stroke="black" stroke-width="4.70244"/>
<path opacity="0.48" d="M600.516 53.6768L510.685 105.226" stroke="black" stroke-width="4.70244"/>
<path opacity="0.96" d="M600.518 53.6768L690.349 105.226" stroke="black" stroke-width="4.70244"/>
<path opacity="0.28" d="M690.349 53.6768L780.18 105.226" stroke="black" stroke-width="4.70244"/>
<path opacity="0.18" d="M780.18 53.6768L870.011 105.226" stroke="black" stroke-width="4.70244"/>
<path opacity="0.19" d="M870.011 53.6768L959.842 105.226" stroke="black" stroke-width="4.70244"/>
<path opacity="0.46" d="M959.842 53.6768L1049.67 105.226" stroke="black" stroke-width="4.70244"/>
<path opacity="0.43" d="M1049.67 53.6768L1139.5 105.226" stroke="black" stroke-width="4.70244"/>
<path opacity="0.33" d="M1139.5 53.6768L1229.34 105.226" stroke="black" stroke-width="4.70244"/>
<path opacity="0.21" d="M1229.33 53.6768L1319.17 105.226" stroke="black" stroke-width="4.70244"/>
<path opacity="0.07" d="M1319.17 53.6768L1409 105.226" stroke="black" stroke-width="4.70244"/>
<path opacity="0.29" d="M1409 53.6768L1498.83 105.226" stroke="black" stroke-width="4.70244"/>
<path opacity="0.11" d="M1498.83 53.6768L1588.66 105.226" stroke="black" stroke-width="4.70244"/>
<path opacity="0.59" d="M1588.66 53.6768L1678.49 105.226" stroke="black" stroke-width="4.70244"/>
<path opacity="0.97" d="M1768.32 53.6768L1678.49 105.226" stroke="black" stroke-width="4.70244"/>
<path opacity="0.14" d="M1858.15 53.6768L1768.32 105.226" stroke="black" stroke-width="4.70244"/>
<path opacity="0.21" d="M1947.98 53.6768L1858.15 105.226" stroke="black" stroke-width="4.70244"/>
<path opacity="0.73" d="M-28.3013 105.226L61.5298 156.775" stroke="black" stroke-width="4.70244"/>
<path opacity="0.45" d="M151.362 105.226L61.5308 156.775" stroke="black" stroke-width="4.70244"/>
<path opacity="0.71" d="M151.361 105.226L241.192 156.775" stroke="black" stroke-width="4.70244"/>
<path opacity="0.14" d="M241.192 105.226L331.023 156.775" stroke="black" stroke-width="4.70244"/>
<path opacity="0.8" d="M331.023 105.226L420.855 156.775" stroke="black" stroke-width="4.70244"/>
<path opacity="0.52" d="M420.854 105.226L510.686 156.775" stroke="black" stroke-width="4.70244"/>
<path opacity="0.8" d="M510.685 105.226L600.516 156.775" stroke="black" stroke-width="4.70244"/>
<path opacity="0.54" d="M690.349 105.228L600.518 156.777" stroke="black" stroke-width="4.70244"/>
<path opacity="0.12" d="M780.18 105.226L690.349 156.775" stroke="black" stroke-width="4.70244"/>
<path opacity="0.6" d="M780.18 105.228L870.011 156.777" stroke="black" stroke-width="4.70244"/>
<path opacity="0.78" d="M870.011 105.226L959.842 156.775" stroke="black" stroke-width="4.70244"/>
<path opacity="0.26" d="M959.842 105.226L1049.67 156.775" stroke="black" stroke-width="4.70244"/>
<path opacity="0.91" d="M1139.5 105.226L1049.67 156.775" stroke="black" stroke-width="4.70244"/>
<path opacity="0.63" d="M1139.5 105.226L1229.34 156.775" stroke="black" stroke-width="4.70244"/>
<path opacity="0.52" d="M1319.17 105.226L1229.33 156.775" stroke="black" stroke-width="4.70244"/>
<path opacity="0.24" d="M1319.17 105.226L1409 156.775" stroke="black" stroke-width="4.70244"/>
<path opacity="0.78" d="M1409 105.226L1498.83 156.775" stroke="black" stroke-width="4.70244"/>
<path opacity="0.83" d="M1498.83 105.226L1588.66 156.775" stroke="black" stroke-width="4.70244"/>
<path opacity="0.66" d="M1588.66 105.226L1678.49 156.775" stroke="black" stroke-width="4.70244"/>
<path opacity="0.51" d="M1678.49 105.226L1768.32 156.775" stroke="black" stroke-width="4.70244"/>
<path opacity="0.65" d="M1858.15 105.226L1768.32 156.775" stroke="black" stroke-width="4.70244"/>
<path opacity="0.34" d="M1858.15 105.226L1947.98 156.775" stroke="black" stroke-width="4.70244"/>
<path opacity="0.56" d="M-28.3013 156.775L61.5298 208.325" stroke="black" stroke-width="4.70244"/>
<path opacity="0.62" d="M151.362 156.775L61.5308 208.325" stroke="black" stroke-width="4.70244"/>
<path opacity="0.94" d="M151.361 156.775L241.192 208.325" stroke="black" stroke-width="4.70244"/>
<path opacity="0.08" d="M331.023 156.775L241.192 208.325" stroke="black" stroke-width="4.70244"/>
<path opacity="0.95" d="M420.855 156.775L331.023 208.325" stroke="black" stroke-width="4.70244"/>
<path opacity="0.8" d="M420.854 156.775L510.686 208.325" stroke="black" stroke-width="4.70244"/>
<path opacity="0.4" d="M600.516 156.775L510.685 208.325" stroke="black" stroke-width="4.70244"/>
<path opacity="0.75" d="M600.518 156.775L690.349 208.325" stroke="black" stroke-width="4.70244"/>
<path opacity="0.83" d="M690.349 156.775L780.18 208.325" stroke="black" stroke-width="4.70244"/>
<path opacity="0.92" d="M780.18 156.775L870.011 208.325" stroke="black" stroke-width="4.70244"/>
<path opacity="0.32" d="M959.842 156.775L870.011 208.325" stroke="black" stroke-width="4.70244"/>
<path opacity="0.67" d="M959.842 156.775L1049.67 208.325" stroke="black" stroke-width="4.70244"/>
<path opacity="0.48" d="M1049.67 156.775L1139.5 208.325" stroke="black" stroke-width="4.70244"/>
<path opacity="0.57" d="M1139.5 156.775L1229.34 208.325" stroke="black" stroke-width="4.70244"/>
<path opacity="0.3" d="M1229.33 156.775L1319.17 208.325" stroke="black" stroke-width="4.70244"/>
<path opacity="0.32" d="M1409 156.775L1319.17 208.325" stroke="black" stroke-width="4.70244"/>
<path opacity="0.76" d="M1409 156.775L1498.83 208.325" stroke="black" stroke-width="4.70244"/>
<path opacity="0.37" d="M1498.83 156.775L1588.66 208.325" stroke="black" stroke-width="4.70244"/>
<path opacity="0.16" d="M1588.66 156.775L1678.49 208.325" stroke="black" stroke-width="4.70244"/>
<path opacity="0.87" d="M1768.32 156.775L1678.49 208.325" stroke="black" stroke-width="4.70244"/>
<path opacity="0.57" d="M1858.15 156.775L1768.32 208.325" stroke="black" stroke-width="4.70244"/>
<path opacity="0.99" d="M1858.15 156.775L1947.98 208.325" stroke="black" stroke-width="4.70244"/>
<path opacity="0.85" d="M-28.3013 208.326L61.5298 259.876" stroke="black" stroke-width="4.70244"/>
<path opacity="0.45" d="M61.5308 208.326L151.362 259.876" stroke="black" stroke-width="4.70244"/>
<path opacity="0.72" d="M151.361 208.326L241.192 259.876" stroke="black" stroke-width="4.70244"/>
<path opacity="0.63" d="M241.192 208.326L331.023 259.876" stroke="black" stroke-width="4.70244"/>
<path opacity="0.83" d="M331.023 208.326L420.855 259.876" stroke="black" stroke-width="4.70244"/>
<path opacity="0.08" d="M420.854 208.326L510.686 259.876" stroke="black" stroke-width="4.70244"/>
<path opacity="0.95" d="M510.685 208.326L600.516 259.876" stroke="black" stroke-width="4.70244"/>
<path opacity="0.45" d="M690.349 208.326L600.518 259.876" stroke="black" stroke-width="4.70244"/>
<path opacity="0.86" d="M690.349 208.326L780.18 259.876" stroke="black" stroke-width="4.70244"/>
<path opacity="0.63" d="M780.18 208.326L870.011 259.876" stroke="black" stroke-width="4.70244"/>
<path opacity="0.9" d="M870.011 208.326L959.842 259.876" stroke="black" stroke-width="4.70244"/>
<path opacity="0.12" d="M959.842 208.326L1049.67 259.876" stroke="black" stroke-width="4.70244"/>
<path opacity="0.75" d="M1049.67 208.326L1139.5 259.876" stroke="black" stroke-width="4.70244"/>
<path opacity="0.29" d="M1229.34 208.326L1139.5 259.876" stroke="black" stroke-width="4.70244"/>
<path opacity="0.91" d="M1319.17 208.326L1229.33 259.876" stroke="black" stroke-width="4.70244"/>
<path opacity="0.37" d="M1409 208.326L1319.17 259.876" stroke="black" stroke-width="4.70244"/>
<path opacity="0.63" d="M1409 208.326L1498.83 259.876" stroke="black" stroke-width="4.70244"/>
<path opacity="0.21" d="M1588.66 208.326L1498.83 259.876" stroke="black" stroke-width="4.70244"/>
<path opacity="0.77" d="M1588.66 208.326L1678.49 259.876" stroke="black" stroke-width="4.70244"/>
<path opacity="0.81" d="M1678.49 208.326L1768.32 259.876" stroke="black" stroke-width="4.70244"/>
<path opacity="0.75" d="M1768.32 208.326L1858.15 259.876" stroke="black" stroke-width="4.70244"/>
<path opacity="0.54" d="M1947.98 208.326L1858.15 259.876" stroke="black" stroke-width="4.70244"/>
<path opacity="0.12" d="M-28.3013 259.875L61.5298 311.424" stroke="black" stroke-width="4.70244"/>
<path opacity="0.2" d="M151.362 259.875L61.5308 311.424" stroke="black" stroke-width="4.70244"/>
<path opacity="0.69" d="M151.361 259.875L241.192 311.424" stroke="black" stroke-width="4.70244"/>
<path opacity="0.45" d="M241.193 259.875L331.024 311.424" stroke="black" stroke-width="4.70244"/>
<path opacity="0.86" d="M331.023 259.875L420.855 311.424" stroke="black" stroke-width="4.70244"/>
<path opacity="0.67" d="M420.854 259.875L510.686 311.424" stroke="black" stroke-width="4.70244"/>
<path d="M510.685 259.875L600.516 311.424" stroke="black" stroke-width="4.70244"/>
<path opacity="0.49" d="M600.518 259.875L690.349 311.424" stroke="black" stroke-width="4.70244"/>
<path opacity="0.62" d="M780.18 259.875L690.349 311.424" stroke="black" stroke-width="4.70244"/>
<path opacity="0.14" d="M780.18 259.875L870.011 311.424" stroke="black" stroke-width="4.70244"/>
<path opacity="0.35" d="M870.01 259.875L959.841 311.424" stroke="black" stroke-width="4.70244"/>
<path opacity="0.88" d="M1049.67 259.875L959.842 311.424" stroke="black" stroke-width="4.70244"/>
<path opacity="0.72" d="M1049.67 259.875L1139.5 311.424" stroke="black" stroke-width="4.70244"/>
<path opacity="0.46" d="M1139.5 259.875L1229.34 311.424" stroke="black" stroke-width="4.70244"/>
<path opacity="0.61" d="M1229.33 259.875L1319.17 311.424" stroke="black" stroke-width="4.70244"/>
<path opacity="0.77" d="M1319.17 259.875L1409 311.424" stroke="black" stroke-width="4.70244"/>
<path opacity="0.3" d="M1409 259.875L1498.83 311.424" stroke="black" stroke-width="4.70244"/>
<path opacity="0.87" d="M1588.66 259.875L1498.83 311.424" stroke="black" stroke-width="4.70244"/>
<path opacity="0.48" d="M1678.49 259.875L1588.66 311.424" stroke="black" stroke-width="4.70244"/>
<path opacity="0.49" d="M1678.49 259.875L1768.32 311.424" stroke="black" stroke-width="4.70244"/>
<path opacity="0.5" d="M1768.32 259.875L1858.15 311.424" stroke="black" stroke-width="4.70244"/>
<path opacity="0.92" d="M1858.15 259.875L1947.98 311.424" stroke="black" stroke-width="4.70244"/>
<path opacity="0.22" d="M61.5298 311.425L-28.3013 362.974" stroke="black" stroke-width="4.70244"/>
<path opacity="0.91" d="M61.5308 311.425L151.362 362.974" stroke="black" stroke-width="4.70244"/>
<path opacity="0.81" d="M151.361 311.425L241.192 362.974" stroke="black" stroke-width="4.70244"/>
<path opacity="0.63" d="M241.193 311.425L331.024 362.974" stroke="black" stroke-width="4.70244"/>
<path opacity="0.16" d="M420.855 311.425L331.023 362.974" stroke="black" stroke-width="4.70244"/>
<path opacity="0.38" d="M420.854 311.425L510.686 362.974" stroke="black" stroke-width="4.70244"/>
<path opacity="0.18" d="M510.685 311.425L600.516 362.974" stroke="black" stroke-width="4.70244"/>
<path opacity="0.14" d="M600.518 311.425L690.349 362.974" stroke="black" stroke-width="4.70244"/>
<path opacity="0.68" d="M690.349 311.425L780.18 362.974" stroke="black" stroke-width="4.70244"/>
<path opacity="0.62" d="M780.18 311.425L870.011 362.974" stroke="black" stroke-width="4.70244"/>
<path opacity="0.09" d="M959.841 311.425L870.01 362.974" stroke="black" stroke-width="4.70244"/>
<path opacity="0.99" d="M959.842 311.425L1049.67 362.974" stroke="black" stroke-width="4.70244"/>
<path opacity="0.99" d="M1049.67 311.425L1139.5 362.974" stroke="black" stroke-width="4.70244"/>
<path opacity="0.25" d="M1229.34 311.425L1139.5 362.974" stroke="black" stroke-width="4.70244"/>
<path opacity="0.88" d="M1229.33 311.425L1319.17 362.974" stroke="black" stroke-width="4.70244"/>
<path opacity="0.47" d="M1319.17 311.425L1409 362.974" stroke="black" stroke-width="4.70244"/>
<path opacity="0.41" d="M1409 311.425L1498.83 362.974" stroke="black" stroke-width="4.70244"/>
<path opacity="0.66" d="M1498.83 311.425L1588.66 362.974" stroke="black" stroke-width="4.70244"/>
<path opacity="0.65" d="M1588.66 311.425L1678.49 362.974" stroke="black" stroke-width="4.70244"/>
<path opacity="0.56" d="M1678.49 311.425L1768.32 362.974" stroke="black" stroke-width="4.70244"/>
<path opacity="0.45" d="M1768.32 311.425L1858.15 362.974" stroke="black" stroke-width="4.70244"/>
<path opacity="0.7" d="M1947.98 311.425L1858.15 362.974" stroke="black" stroke-width="4.70244"/>
<path opacity="0.19" d="M61.5298 362.975L-28.3013 414.524" stroke="black" stroke-width="4.70244"/>
<path opacity="0.81" d="M61.5308 362.975L151.362 414.524" stroke="black" stroke-width="4.70244"/>
<path opacity="0.07" d="M151.361 362.975L241.192 414.524" stroke="black" stroke-width="4.70244"/>
<path opacity="0.17" d="M241.193 362.975L331.024 414.524" stroke="black" stroke-width="4.70244"/>
<path opacity="0.58" d="M331.023 362.975L420.855 414.524" stroke="black" stroke-width="4.70244"/>
<path opacity="0.39" d="M420.854 362.975L510.686 414.524" stroke="black" stroke-width="4.70244"/>
<path opacity="0.85" d="M510.685 362.975L600.516 414.524" stroke="black" stroke-width="4.70244"/>
<path opacity="0.37" d="M600.518 362.975L690.349 414.524" stroke="black" stroke-width="4.70244"/>
<path opacity="0.91" d="M780.18 362.975L690.349 414.524" stroke="black" stroke-width="4.70244"/>
<path opacity="0.07" d="M780.18 362.975L870.011 414.524" stroke="black" stroke-width="4.70244"/>
<path opacity="0.45" d="M870.01 362.975L959.841 414.524" stroke="black" stroke-width="4.70244"/>
<path opacity="0.34" d="M959.842 362.975L1049.67 414.524" stroke="black" stroke-width="4.70244"/>
<path opacity="0.76" d="M1049.67 362.975L1139.5 414.524" stroke="black" stroke-width="4.70244"/>
<path opacity="0.32" d="M1139.5 362.975L1229.34 414.524" stroke="black" stroke-width="4.70244"/>
<path opacity="0.53" d="M1229.33 362.975L1319.17 414.524" stroke="black" stroke-width="4.70244"/>
<path opacity="0.85" d="M1319.17 362.975L1409 414.524" stroke="black" stroke-width="4.70244"/>
<path opacity="0.23" d="M1409 362.975L1498.83 414.524" stroke="black" stroke-width="4.70244"/>
<path opacity="0.2" d="M1498.83 362.975L1588.66 414.524" stroke="black" stroke-width="4.70244"/>
<path opacity="0.52" d="M1588.66 362.975L1678.49 414.524" stroke="black" stroke-width="4.70244"/>
<path opacity="0.08" d="M1678.49 362.975L1768.32 414.524" stroke="black" stroke-width="4.70244"/>
<path opacity="0.73" d="M1858.15 362.975L1768.32 414.524" stroke="black" stroke-width="4.70244"/>
<path opacity="0.45" d="M1858.15 362.975L1947.98 414.524" stroke="black" stroke-width="4.70244"/>
<path opacity="0.48" d="M-28.3013 414.523L61.5298 466.073" stroke="black" stroke-width="4.70244"/>
<path opacity="0.08" d="M61.5308 414.523L151.362 466.073" stroke="black" stroke-width="4.70244"/>
<path opacity="0.68" d="M151.361 414.523L241.192 466.073" stroke="black" stroke-width="4.70244"/>
<path opacity="0.97" d="M331.024 414.523L241.193 466.073" stroke="black" stroke-width="4.70244"/>
<path opacity="0.93" d="M420.855 414.523L331.023 466.073" stroke="black" stroke-width="4.70244"/>
<path opacity="0.18" d="M510.686 414.523L420.854 466.073" stroke="black" stroke-width="4.70244"/>
<path opacity="0.24" d="M510.685 414.523L600.516 466.073" stroke="black" stroke-width="4.70244"/>
<path opacity="0.45" d="M600.518 414.523L690.349 466.073" stroke="black" stroke-width="4.70244"/>
<path opacity="0.89" d="M780.18 414.523L690.349 466.073" stroke="black" stroke-width="4.70244"/>
<path opacity="0.94" d="M780.18 414.523L870.011 466.073" stroke="black" stroke-width="4.70244"/>
<path opacity="0.24" d="M870.01 414.523L959.841 466.073" stroke="black" stroke-width="4.70244"/>
<path opacity="0.15" d="M959.842 414.523L1049.67 466.073" stroke="black" stroke-width="4.70244"/>
<path opacity="0.55" d="M1139.5 414.523L1049.67 466.073" stroke="black" stroke-width="4.70244"/>
<path opacity="0.99" d="M1139.5 414.523L1229.34 466.073" stroke="black" stroke-width="4.70244"/>
<path opacity="0.74" d="M1229.33 414.523L1319.17 466.073" stroke="black" stroke-width="4.70244"/>
<path opacity="0.39" d="M1409 414.523L1319.17 466.073" stroke="black" stroke-width="4.70244"/>
<path opacity="0.49" d="M1409 414.523L1498.83 466.073" stroke="black" stroke-width="4.70244"/>
<path opacity="0.73" d="M1498.83 414.523L1588.66 466.073" stroke="black" stroke-width="4.70244"/>
<path opacity="0.11" d="M1678.49 414.523L1588.66 466.073" stroke="black" stroke-width="4.70244"/>
<path opacity="0.2" d="M1678.49 414.523L1768.32 466.073" stroke="black" stroke-width="4.70244"/>
<path opacity="0.41" d="M1768.32 414.523L1858.15 466.073" stroke="black" stroke-width="4.70244"/>
<path opacity="0.75" d="M1947.98 414.523L1858.15 466.073" stroke="black" stroke-width="4.70244"/>
<path opacity="0.6" d="M61.5308 466.072L-28.3003 517.622" stroke="black" stroke-width="4.70244"/>
<path opacity="0.42" d="M151.362 466.072L61.5308 517.622" stroke="black" stroke-width="4.70244"/>
<path opacity="0.61" d="M151.361 466.072L241.192 517.622" stroke="black" stroke-width="4.70244"/>
<path opacity="0.58" d="M241.192 466.072L331.023 517.622" stroke="black" stroke-width="4.70244"/>
<path opacity="0.77" d="M331.023 466.072L420.855 517.622" stroke="black" stroke-width="4.70244"/>
<path opacity="0.16" d="M510.686 466.072L420.854 517.622" stroke="black" stroke-width="4.70244"/>
<path opacity="0.3" d="M510.685 466.072L600.516 517.622" stroke="black" stroke-width="4.70244"/>
<path opacity="0.21" d="M600.518 466.072L690.349 517.622" stroke="black" stroke-width="4.70244"/>
<path opacity="0.93" d="M690.349 466.072L780.18 517.622" stroke="black" stroke-width="4.70244"/>
<path opacity="0.2" d="M780.18 466.072L870.011 517.622" stroke="black" stroke-width="4.70244"/>
<path opacity="0.44" d="M870.011 466.072L959.842 517.622" stroke="black" stroke-width="4.70244"/>
<path opacity="0.78" d="M959.842 466.072L1049.67 517.622" stroke="black" stroke-width="4.70244"/>
<path opacity="0.76" d="M1049.67 466.072L1139.5 517.622" stroke="black" stroke-width="4.70244"/>
<path opacity="0.45" d="M1229.34 466.072L1139.5 517.622" stroke="black" stroke-width="4.70244"/>
<path opacity="0.48" d="M1229.33 466.072L1319.17 517.622" stroke="black" stroke-width="4.70244"/>
<path opacity="0.5" d="M1409 466.072L1319.17 517.622" stroke="black" stroke-width="4.70244"/>
<path opacity="0.78" d="M1498.83 466.072L1409 517.622" stroke="black" stroke-width="4.70244"/>
<path opacity="0.08" d="M1498.83 466.072L1588.66 517.622" stroke="black" stroke-width="4.70244"/>
<path opacity="0.57" d="M1588.66 466.072L1678.49 517.622" stroke="black" stroke-width="4.70244"/>
<path opacity="0.49" d="M1678.49 466.072L1768.32 517.622" stroke="black" stroke-width="4.70244"/>
<path opacity="0.93" d="M1768.32 466.072L1858.15 517.622" stroke="black" stroke-width="4.70244"/>
<path opacity="0.44" d="M1858.15 466.072L1947.98 517.622" stroke="black" stroke-width="4.70244"/>
<path opacity="0.89" d="M-28.3013 517.621L61.5298 569.171" stroke="black" stroke-width="4.70244"/>
<path opacity="0.27" d="M61.5308 517.621L151.362 569.171" stroke="black" stroke-width="4.70244"/>
<path opacity="0.39" d="M151.361 517.621L241.192 569.171" stroke="black" stroke-width="4.70244"/>
<path opacity="0.25" d="M331.023 517.621L241.192 569.171" stroke="black" stroke-width="4.70244"/>
<path opacity="0.41" d="M331.023 517.621L420.855 569.171" stroke="black" stroke-width="4.70244"/>
<path opacity="0.16" d="M420.854 517.621L510.686 569.171" stroke="black" stroke-width="4.70244"/>
<path opacity="0.15" d="M510.685 517.621L600.516 569.171" stroke="black" stroke-width="4.70244"/>
<path opacity="0.87" d="M690.349 517.621L600.518 569.171" stroke="black" stroke-width="4.70244"/>
<path opacity="0.66" d="M690.349 517.621L780.18 569.171" stroke="black" stroke-width="4.70244"/>
<path opacity="0.07" d="M780.18 517.621L870.011 569.171" stroke="black" stroke-width="4.70244"/>
<path opacity="0.14" d="M870.011 517.621L959.842 569.171" stroke="black" stroke-width="4.70244"/>
<path opacity="0.69" d="M959.842 517.621L1049.67 569.171" stroke="black" stroke-width="4.70244"/>
<path opacity="0.59" d="M1139.5 517.621L1049.67 569.171" stroke="black" stroke-width="4.70244"/>
<path opacity="0.9" d="M1229.34 517.621L1139.5 569.171" stroke="black" stroke-width="4.70244"/>
<path opacity="0.09" d="M1319.17 517.621L1229.33 569.171" stroke="black" stroke-width="4.70244"/>
<path opacity="0.67" d="M1409 517.621L1319.17 569.171" stroke="black" stroke-width="4.70244"/>
<path opacity="0.74" d="M1498.83 517.621L1409 569.171" stroke="black" stroke-width="4.70244"/>
<path opacity="0.4" d="M1588.66 517.621L1498.83 569.171" stroke="black" stroke-width="4.70244"/>
<path opacity="0.72" d="M1588.66 517.621L1678.49 569.171" stroke="black" stroke-width="4.70244"/>
<path d="M1768.32 517.621L1678.49 569.171" stroke="black" stroke-width="4.70244"/>
<path opacity="0.69" d="M1858.15 517.621L1768.32 569.171" stroke="black" stroke-width="4.70244"/>
<path opacity="0.59" d="M1858.15 517.621L1947.98 569.171" stroke="black" stroke-width="4.70244"/>
<path opacity="0.98" d="M61.5298 569.172L-28.3013 620.721" stroke="black" stroke-width="4.70244"/>
<path opacity="0.11" d="M61.5308 569.172L151.362 620.721" stroke="black" stroke-width="4.70244"/>
<path opacity="0.77" d="M151.361 569.172L241.192 620.721" stroke="black" stroke-width="4.70244"/>
<path opacity="0.82" d="M241.193 569.172L331.024 620.721" stroke="black" stroke-width="4.70244"/>
<path opacity="0.35" d="M331.023 569.172L420.855 620.721" stroke="black" stroke-width="4.70244"/>
<path opacity="0.6" d="M420.854 569.172L510.686 620.721" stroke="black" stroke-width="4.70244"/>
<path opacity="0.5" d="M510.685 569.172L600.516 620.721" stroke="black" stroke-width="4.70244"/>
<path opacity="0.72" d="M600.518 569.172L690.349 620.721" stroke="black" stroke-width="4.70244"/>
<path opacity="0.09" d="M690.349 569.172L780.18 620.721" stroke="black" stroke-width="4.70244"/>
<path opacity="0.75" d="M780.18 569.172L870.011 620.721" stroke="black" stroke-width="4.70244"/>
<path opacity="0.1" d="M870.01 569.172L959.841 620.721" stroke="black" stroke-width="4.70244"/>
<path opacity="0.89" d="M1049.67 569.172L959.842 620.721" stroke="black" stroke-width="4.70244"/>
<path opacity="0.52" d="M1049.67 569.172L1139.5 620.721" stroke="black" stroke-width="4.70244"/>
<path opacity="0.48" d="M1139.5 569.172L1229.34 620.721" stroke="black" stroke-width="4.70244"/>
<path opacity="0.08" d="M1229.33 569.172L1319.17 620.721" stroke="black" stroke-width="4.70244"/>
<path opacity="0.51" d="M1319.17 569.172L1409 620.721" stroke="black" stroke-width="4.70244"/>
<path opacity="0.74" d="M1409 569.172L1498.83 620.721" stroke="black" stroke-width="4.70244"/>
<path opacity="0.15" d="M1498.83 569.172L1588.66 620.721" stroke="black" stroke-width="4.70244"/>
<path opacity="0.19" d="M1678.49 569.172L1588.66 620.721" stroke="black" stroke-width="4.70244"/>
<path opacity="0.93" d="M1768.32 569.172L1678.49 620.721" stroke="black" stroke-width="4.70244"/>
<path opacity="0.34" d="M1768.32 569.172L1858.15 620.721" stroke="black" stroke-width="4.70244"/>
<path opacity="0.91" d="M1858.15 569.172L1947.98 620.721" stroke="black" stroke-width="4.70244"/>
<path opacity="0.44" d="M-28.3013 620.721L61.5298 672.27" stroke="black" stroke-width="4.70244"/>
<path opacity="0.53" d="M151.362 620.721L61.5308 672.27" stroke="black" stroke-width="4.70244"/>
<path opacity="0.65" d="M151.361 620.721L241.192 672.27" stroke="black" stroke-width="4.70244"/>
<path opacity="0.44" d="M241.193 620.721L331.024 672.27" stroke="black" stroke-width="4.70244"/>
<path opacity="0.67" d="M331.023 620.721L420.855 672.27" stroke="black" stroke-width="4.70244"/>
<path opacity="0.76" d="M510.686 620.721L420.854 672.27" stroke="black" stroke-width="4.70244"/>
<path opacity="0.8" d="M510.685 620.721L600.516 672.27" stroke="black" stroke-width="4.70244"/>
<path opacity="0.79" d="M600.518 620.721L690.349 672.27" stroke="black" stroke-width="4.70244"/>
<path opacity="0.73" d="M690.349 620.721L780.18 672.27" stroke="black" stroke-width="4.70244"/>
<path opacity="0.7" d="M780.18 620.721L870.011 672.27" stroke="black" stroke-width="4.70244"/>
<path opacity="0.24" d="M870.01 620.721L959.841 672.27" stroke="black" stroke-width="4.70244"/>
<path opacity="0.84" d="M959.842 620.721L1049.67 672.27" stroke="black" stroke-width="4.70244"/>
<path opacity="0.23" d="M1049.67 620.721L1139.5 672.27" stroke="black" stroke-width="4.70244"/>
<path opacity="0.32" d="M1139.5 620.721L1229.34 672.27" stroke="black" stroke-width="4.70244"/>
<path opacity="0.71" d="M1229.33 620.721L1319.17 672.27" stroke="black" stroke-width="4.70244"/>
<path opacity="0.11" d="M1319.17 620.721L1409 672.27" stroke="black" stroke-width="4.70244"/>
<path opacity="0.66" d="M1409 620.721L1498.83 672.27" stroke="black" stroke-width="4.70244"/>
<path opacity="0.24" d="M1588.66 620.721L1498.83 672.27" stroke="black" stroke-width="4.70244"/>
<path opacity="0.82" d="M1678.49 620.721L1588.66 672.27" stroke="black" stroke-width="4.70244"/>
<path opacity="0.79" d="M1678.49 620.721L1768.32 672.27" stroke="black" stroke-width="4.70244"/>
<path opacity="0.37" d="M1768.32 620.721L1858.15 672.27" stroke="black" stroke-width="4.70244"/>
<path opacity="0.63" d="M1858.15 620.721L1947.98 672.27" stroke="black" stroke-width="4.70244"/>
<path opacity="0.42" d="M-28.3013 672.271L61.5298 723.821" stroke="black" stroke-width="4.70244"/>
<path opacity="0.25" d="M151.362 672.271L61.5308 723.821" stroke="black" stroke-width="4.70244"/>
<path opacity="0.72" d="M151.361 672.271L241.192 723.821" stroke="black" stroke-width="4.70244"/>
<path opacity="0.24" d="M331.024 672.271L241.193 723.821" stroke="black" stroke-width="4.70244"/>
<path opacity="0.22" d="M420.855 672.271L331.023 723.821" stroke="black" stroke-width="4.70244"/>
<path opacity="0.65" d="M420.854 672.271L510.686 723.821" stroke="black" stroke-width="4.70244"/>
<path opacity="0.55" d="M510.685 672.271L600.516 723.821" stroke="black" stroke-width="4.70244"/>
<path opacity="0.69" d="M600.518 672.271L690.349 723.821" stroke="black" stroke-width="4.70244"/>
<path opacity="0.35" d="M690.349 672.271L780.18 723.821" stroke="black" stroke-width="4.70244"/>
<path opacity="0.71" d="M780.18 672.271L870.011 723.821" stroke="black" stroke-width="4.70244"/>
<path opacity="0.86" d="M870.01 672.271L959.841 723.821" stroke="black" stroke-width="4.70244"/>
<path opacity="0.23" d="M959.842 672.271L1049.67 723.821" stroke="black" stroke-width="4.70244"/>
<path opacity="0.65" d="M1049.67 672.271L1139.5 723.821" stroke="black" stroke-width="4.70244"/>
<path opacity="0.24" d="M1139.5 672.271L1229.34 723.821" stroke="black" stroke-width="4.70244"/>
<path opacity="0.89" d="M1319.17 672.271L1229.33 723.821" stroke="black" stroke-width="4.70244"/>
<path opacity="0.35" d="M1409 672.271L1319.17 723.821" stroke="black" stroke-width="4.70244"/>
<path opacity="0.11" d="M1409 672.271L1498.83 723.821" stroke="black" stroke-width="4.70244"/>
<path opacity="0.2" d="M1498.83 672.271L1588.66 723.821" stroke="black" stroke-width="4.70244"/>
<path opacity="0.6" d="M1588.66 672.271L1678.49 723.821" stroke="black" stroke-width="4.70244"/>
<path opacity="0.32" d="M1678.49 672.271L1768.32 723.821" stroke="black" stroke-width="4.70244"/>
<path opacity="0.22" d="M1768.32 672.271L1858.15 723.821" stroke="black" stroke-width="4.70244"/>
<path opacity="0.79" d="M1858.15 672.271L1947.98 723.821" stroke="black" stroke-width="4.70244"/>
<path opacity="0.53" d="M101.322 685.579L11.4907 737.129" stroke="black" stroke-width="4.70244"/>
<path opacity="0.87" d="M191.154 685.579L101.323 737.129" stroke="black" stroke-width="4.70244"/>
<path opacity="0.43" d="M241.192 723.821L151.361 775.371" stroke="black" stroke-width="4.70244"/>
<path opacity="0.31" d="M241.193 723.821L331.024 775.371" stroke="black" stroke-width="4.70244"/>
<path opacity="0.45" d="M331.023 723.821L420.855 775.371" stroke="black" stroke-width="4.70244"/>
<path opacity="0.61" d="M510.686 723.821L420.854 775.371" stroke="black" stroke-width="4.70244"/>
<path opacity="0.19" d="M510.685 723.821L600.516 775.371" stroke="black" stroke-width="4.70244"/>
<path opacity="0.6" d="M600.518 723.821L690.349 775.371" stroke="black" stroke-width="4.70244"/>
<path opacity="0.92" d="M690.349 723.821L780.18 775.371" stroke="black" stroke-width="4.70244"/>
<path opacity="0.32" d="M780.18 723.821L870.011 775.371" stroke="black" stroke-width="4.70244"/>
<path opacity="0.73" d="M959.841 723.821L870.01 775.371" stroke="black" stroke-width="4.70244"/>
<path opacity="0.92" d="M959.842 723.821L1049.67 775.371" stroke="black" stroke-width="4.70244"/>
<path opacity="0.93" d="M1049.67 723.821L1139.5 775.371" stroke="black" stroke-width="4.70244"/>
<path opacity="0.34" d="M1139.5 723.821L1229.34 775.371" stroke="black" stroke-width="4.70244"/>
<path opacity="0.13" d="M1229.33 723.821L1319.17 775.371" stroke="black" stroke-width="4.70244"/>
<path opacity="0.99" d="M1319.17 723.821L1409 775.371" stroke="black" stroke-width="4.70244"/>
<path opacity="0.37" d="M1498.83 723.821L1409 775.371" stroke="black" stroke-width="4.70244"/>
<path opacity="0.17" d="M1498.83 723.821L1588.66 775.371" stroke="black" stroke-width="4.70244"/>
<path opacity="0.92" d="M1588.66 723.821L1678.49 775.371" stroke="black" stroke-width="4.70244"/>
<path opacity="0.59" d="M1678.49 723.821L1768.32 775.371" stroke="black" stroke-width="4.70244"/>
<path opacity="0.08" d="M1768.32 723.821L1858.15 775.371" stroke="black" stroke-width="4.70244"/>
</g>
</g>
</svg>
