<svg width="6" height="80" viewBox="0 0 6 80" fill="none" xmlns="http://www.w3.org/2000/svg">
<path d="M2.90918 0.265625L0.0224283 5.26562H5.79593L2.90918 0.265625ZM2.90918 79.3394L5.79593 74.3394H0.0224283L2.90918 79.3394ZM2.90918 6.19615H2.40918V10.1498H2.90918H3.40918V6.19615H2.90918ZM2.90918 14.1035H2.40918V18.0572H2.90918H3.40918V14.1035H2.90918ZM2.90918 22.0109H2.40918V25.9646H2.90918H3.40918V22.0109H2.90918ZM2.90918 29.9183H2.40918V33.872H2.90918H3.40918V29.9183H2.90918ZM2.90918 37.8256H2.40918V41.7793H2.90918H3.40918V37.8256H2.90918ZM2.90918 45.733H2.40918V49.6867H2.90918H3.40918V45.733H2.90918ZM2.90918 53.6404H2.40918V57.5941H2.90918H3.40918V53.6404H2.90918ZM2.90918 61.5478H2.40918V65.5014H2.90918H3.40918V61.5478H2.90918ZM2.90918 69.4551H2.40918V73.4088H2.90918H3.40918V69.4551H2.90918Z" fill="black"/>
</svg>
