<?xml version="1.0" encoding="iso-8859-1"?>
<!-- Uploaded to: SVG Repo, www.svgrepo.com, Generator: SVG Repo Mixer Tools -->
<svg height="800px" width="800px" version="1.1" id="Layer_1" xmlns="http://www.w3.org/2000/svg" xmlns:xlink="http://www.w3.org/1999/xlink" 
	 viewBox="0 0 392.533 392.533" xml:space="preserve">
<g>
	<path style="fill:#FFFFFF;" d="M207.192,23.79v71.887h51.265C245.98,56.63,226.78,30.901,207.192,23.79z"/>
	<path style="fill:#FFFFFF;" d="M207.192,275.006h57.277c4.655-20.17,7.564-42.99,8.21-67.814h-65.487V275.006L207.192,275.006z"/>
	<path style="fill:#FFFFFF;" d="M264.404,117.527h-57.277v67.814h65.422C271.903,160.388,268.994,137.632,264.404,117.527z"/>
	<path style="fill:#FFFFFF;" d="M258.457,296.792h-51.329v71.887C226.78,361.632,245.98,335.903,258.457,296.792z"/>
	<path style="fill:#FFFFFF;" d="M281.018,296.792c-7.887,26.764-18.747,49.196-31.935,65.681
		c36.525-11.636,67.814-34.974,89.535-65.681H281.018z"/>
	<path style="fill:#FFFFFF;" d="M351.871,117.527h-65.293c4.461,20.881,7.176,43.766,7.822,67.814h75.96
		C368.808,161.099,362.343,138.15,351.871,117.527z"/>
	<path style="fill:#FFFFFF;" d="M249.212,30.061c13.059,16.485,23.984,38.917,31.806,65.681h57.665
		C317.026,65.034,285.737,41.697,249.212,30.061z"/>
	<path style="fill:#FFFFFF;" d="M286.578,275.006h65.293c10.537-20.622,17.002-43.572,18.489-67.814h-76.024
		C293.689,231.24,291.103,254.125,286.578,275.006z"/>
	<path style="fill:#FFFFFF;" d="M143.515,362.537c-13.123-16.485-24.178-38.917-32.065-65.745h-57.6
		C75.572,327.564,106.925,350.901,143.515,362.537z"/>
	<path style="fill:#FFFFFF;" d="M134.077,95.741h51.329V23.855C165.754,30.901,146.554,56.63,134.077,95.741z"/>
	<path style="fill:#FFFFFF;" d="M106.02,275.006c-4.461-20.881-7.176-43.766-7.822-67.814H22.174
		c1.487,24.242,8.016,47.192,18.489,67.814H106.02L106.02,275.006z"/>
	<path style="fill:#FFFFFF;" d="M22.174,185.341h75.96c0.646-24.178,3.426-46.998,7.822-67.814H40.663
		C30.19,138.15,23.725,161.099,22.174,185.341z"/>
	<path style="fill:#FFFFFF;" d="M185.406,207.192h-65.487c0.711,24.889,3.62,47.709,8.21,67.814h57.277V207.192z"/>
	<path style="fill:#FFFFFF;" d="M185.406,117.527h-57.277c-4.655,20.17-7.564,42.99-8.21,67.814h65.487V117.527L185.406,117.527z"/>
	<path style="fill:#FFFFFF;" d="M53.851,95.741h57.665c7.887-26.828,18.877-49.325,32.065-65.745
		C106.925,41.568,75.572,64.97,53.851,95.741z"/>
	<path style="fill:#FFFFFF;" d="M185.406,368.743v-71.887h-51.329C146.554,335.903,165.754,361.632,185.406,368.743z"/>
</g>
<path style="fill:#56ACE0;" d="M196.267,348.962c-84.17,0-152.695-68.461-152.695-152.695c0-84.17,68.461-152.695,152.695-152.695
	c84.17,0,152.695,68.461,152.695,152.695C348.962,280.436,280.436,348.962,196.267,348.962z"/>
<path style="fill:#194F82;" d="M196.267,0C88.113,0,0,87.984,0,196.267s88.113,196.267,196.267,196.267
	s196.267-87.984,196.267-196.267S304.549,0,196.267,0z M294.4,185.341c-0.646-24.113-3.297-46.998-7.822-67.814h65.293
	c10.537,20.622,17.002,43.572,18.489,67.814H294.4z M370.36,207.192c-1.487,24.242-8.016,47.192-18.489,67.814h-65.293
	c4.461-20.881,7.176-43.766,7.822-67.814H370.36L370.36,207.192z M281.018,95.741c-7.822-26.634-18.683-49.196-31.806-65.681
	c36.461,11.636,67.749,34.974,89.471,65.681H281.018z M207.192,185.341v-67.814h57.277c4.655,20.17,7.564,42.99,8.21,67.814H207.192
	z M272.614,207.192c-0.711,24.889-3.62,47.709-8.21,67.814h-57.277v-67.814H272.614L272.614,207.192z M207.192,95.741V23.855
	c19.653,7.111,38.788,32.84,51.329,71.887H207.192z M207.192,296.792h51.265c-12.541,39.111-31.677,64.776-51.329,71.887v-71.887
	H207.192z M249.147,362.537c13.123-16.485,24.049-38.917,31.935-65.681h57.665C316.962,327.499,285.673,350.901,249.147,362.537z
	 M128.129,275.006c-4.655-20.17-7.564-42.99-8.21-67.814h65.487v67.814H128.129L128.129,275.006z M185.406,296.792v71.887
	c-19.653-7.111-38.788-32.84-51.329-71.887H185.406z M119.919,185.341c0.711-24.889,3.62-47.709,8.21-67.814h57.277v67.814H119.919z
	 M111.515,95.741H53.851c21.721-30.707,53.075-54.109,89.729-65.745C130.327,46.416,119.402,68.913,111.515,95.741z M106.02,117.527
	c-4.461,20.881-7.176,43.766-7.822,67.814H22.174c1.487-24.242,8.016-47.192,18.489-67.814H106.02z M98.198,207.192
	c0.646,24.113,3.297,46.998,7.822,67.814H40.663c-10.537-20.622-17.002-43.572-18.489-67.814H98.198L98.198,207.192z
	 M111.451,296.792c7.887,26.828,18.877,49.325,32.065,65.745c-36.525-11.636-67.943-34.974-89.665-65.745H111.451z M185.406,95.741
	h-51.329c12.541-39.111,31.677-64.776,51.329-71.887V95.741z"/>
</svg>